<mxfile host="Electron" modified="2024-07-08T07:02:55.468Z" agent="Mozilla/5.0 (Windows NT 10.0; Win64; x64) AppleWebKit/537.36 (KHTML, like Gecko) draw.io/23.1.5 Chrome/120.0.6099.109 Electron/28.1.0 Safari/537.36" etag="bXS9YacU5TTYFwS2svVj" version="23.1.5" type="device">
  <diagram name="第 1 页" id="n_WZfc53meXCdzstPTw8">
    <mxGraphModel dx="2762" dy="1887" grid="1" gridSize="10" guides="1" tooltips="1" connect="1" arrows="1" fold="1" page="0" pageScale="1" pageWidth="1169" pageHeight="827" math="0" shadow="0">
      <root>
        <mxCell id="0" />
        <mxCell id="1" parent="0" />
        <mxCell id="6OOZVl3HkzZtPA9987tU-8" value="" style="edgeStyle=none;curved=1;rounded=0;orthogonalLoop=1;jettySize=auto;html=1;fontSize=12;startSize=8;endSize=8;" parent="1" source="6OOZVl3HkzZtPA9987tU-1" target="6OOZVl3HkzZtPA9987tU-3" edge="1">
          <mxGeometry relative="1" as="geometry" />
        </mxCell>
        <mxCell id="6OOZVl3HkzZtPA9987tU-1" value="输入 energyFactor" style="rounded=0;whiteSpace=wrap;html=1;fontSize=15;" parent="1" vertex="1">
          <mxGeometry x="-50" y="-530" width="200" height="90" as="geometry" />
        </mxCell>
        <mxCell id="6OOZVl3HkzZtPA9987tU-10" value="" style="edgeStyle=none;curved=1;rounded=0;orthogonalLoop=1;jettySize=auto;html=1;fontSize=12;startSize=8;endSize=8;" parent="1" source="6OOZVl3HkzZtPA9987tU-3" target="6OOZVl3HkzZtPA9987tU-5" edge="1">
          <mxGeometry relative="1" as="geometry" />
        </mxCell>
        <mxCell id="6OOZVl3HkzZtPA9987tU-3" value="判断两端的CWL有无超界限" style="rhombus;whiteSpace=wrap;html=1;fontSize=15;" parent="1" vertex="1">
          <mxGeometry x="-61.25" y="-340" width="222.5" height="110" as="geometry" />
        </mxCell>
        <mxCell id="6OOZVl3HkzZtPA9987tU-17" value="" style="edgeStyle=none;curved=1;rounded=0;orthogonalLoop=1;jettySize=auto;html=1;fontSize=12;startSize=8;endSize=8;" parent="1" source="6OOZVl3HkzZtPA9987tU-5" target="6OOZVl3HkzZtPA9987tU-16" edge="1">
          <mxGeometry relative="1" as="geometry" />
        </mxCell>
        <mxCell id="6OOZVl3HkzZtPA9987tU-33" value="" style="edgeStyle=none;curved=1;rounded=0;orthogonalLoop=1;jettySize=auto;html=1;fontSize=12;startSize=8;endSize=8;" parent="1" source="6OOZVl3HkzZtPA9987tU-5" target="6OOZVl3HkzZtPA9987tU-14" edge="1">
          <mxGeometry relative="1" as="geometry" />
        </mxCell>
        <mxCell id="6OOZVl3HkzZtPA9987tU-5" value="判断是否为 2nd order" style="rhombus;whiteSpace=wrap;html=1;fontSize=15;" parent="1" vertex="1">
          <mxGeometry x="-61.25" y="300" width="222.5" height="110" as="geometry" />
        </mxCell>
        <mxCell id="6OOZVl3HkzZtPA9987tU-9" value="是" style="text;html=1;align=center;verticalAlign=middle;whiteSpace=wrap;rounded=0;fontSize=16;" parent="1" vertex="1">
          <mxGeometry x="230" y="-340" width="60" height="30" as="geometry" />
        </mxCell>
        <mxCell id="6OOZVl3HkzZtPA9987tU-13" value="否" style="text;html=1;align=center;verticalAlign=middle;whiteSpace=wrap;rounded=0;fontSize=16;" parent="1" vertex="1">
          <mxGeometry x="-10" y="190" width="60" height="30" as="geometry" />
        </mxCell>
        <mxCell id="6OOZVl3HkzZtPA9987tU-34" value="" style="edgeStyle=none;curved=1;rounded=0;orthogonalLoop=1;jettySize=auto;html=1;fontSize=12;startSize=8;endSize=8;" parent="1" source="6OOZVl3HkzZtPA9987tU-14" target="6OOZVl3HkzZtPA9987tU-32" edge="1">
          <mxGeometry relative="1" as="geometry" />
        </mxCell>
        <mxCell id="6OOZVl3HkzZtPA9987tU-14" value="处理中间 band 的电压" style="rounded=0;whiteSpace=wrap;html=1;fontSize=15;" parent="1" vertex="1">
          <mxGeometry x="-50" y="870" width="200" height="90" as="geometry" />
        </mxCell>
        <mxCell id="6OOZVl3HkzZtPA9987tU-37" value="" style="edgeStyle=none;curved=1;rounded=0;orthogonalLoop=1;jettySize=auto;html=1;fontSize=12;startSize=8;endSize=8;" parent="1" source="6OOZVl3HkzZtPA9987tU-16" target="6OOZVl3HkzZtPA9987tU-36" edge="1">
          <mxGeometry relative="1" as="geometry" />
        </mxCell>
        <mxCell id="6OOZVl3HkzZtPA9987tU-16" value="判断 2nd order&amp;nbsp;&lt;br&gt;附近的cwl是否需要处理" style="rhombus;whiteSpace=wrap;html=1;fontSize=15;" parent="1" vertex="1">
          <mxGeometry x="-430" y="300" width="222.5" height="110" as="geometry" />
        </mxCell>
        <mxCell id="6OOZVl3HkzZtPA9987tU-18" value="是" style="text;html=1;align=center;verticalAlign=middle;whiteSpace=wrap;rounded=0;fontSize=16;" parent="1" vertex="1">
          <mxGeometry x="-150" y="320" width="60" height="30" as="geometry" />
        </mxCell>
        <mxCell id="6OOZVl3HkzZtPA9987tU-25" style="edgeStyle=none;curved=1;rounded=0;orthogonalLoop=1;jettySize=auto;html=1;exitX=0.5;exitY=1;exitDx=0;exitDy=0;fontSize=12;startSize=8;endSize=8;" parent="1" source="6OOZVl3HkzZtPA9987tU-20" edge="1">
          <mxGeometry relative="1" as="geometry">
            <mxPoint x="491.51851851851825" y="-160" as="targetPoint" />
          </mxGeometry>
        </mxCell>
        <mxCell id="6OOZVl3HkzZtPA9987tU-29" value="" style="edgeStyle=none;curved=1;rounded=0;orthogonalLoop=1;jettySize=auto;html=1;fontSize=12;startSize=8;endSize=8;" parent="1" source="6OOZVl3HkzZtPA9987tU-20" target="6OOZVl3HkzZtPA9987tU-28" edge="1">
          <mxGeometry relative="1" as="geometry" />
        </mxCell>
        <mxCell id="6OOZVl3HkzZtPA9987tU-20" value="判断两端电压余量&lt;br&gt;是否足够" style="rhombus;whiteSpace=wrap;html=1;fontSize=15;" parent="1" vertex="1">
          <mxGeometry x="380" y="-340" width="222.5" height="110" as="geometry" />
        </mxCell>
        <mxCell id="6OOZVl3HkzZtPA9987tU-24" value="" style="endArrow=classic;html=1;rounded=0;fontSize=12;startSize=8;endSize=8;exitX=1;exitY=0.5;exitDx=0;exitDy=0;" parent="1" source="6OOZVl3HkzZtPA9987tU-3" target="6OOZVl3HkzZtPA9987tU-20" edge="1">
          <mxGeometry width="50" height="50" relative="1" as="geometry">
            <mxPoint x="450" y="210" as="sourcePoint" />
            <mxPoint x="500" y="160" as="targetPoint" />
          </mxGeometry>
        </mxCell>
        <mxCell id="T5l22h_LEsQU9Dkja71x-4" value="" style="edgeStyle=none;curved=1;rounded=0;orthogonalLoop=1;jettySize=auto;html=1;fontSize=12;startSize=8;endSize=8;" edge="1" parent="1" source="6OOZVl3HkzZtPA9987tU-26" target="T5l22h_LEsQU9Dkja71x-1">
          <mxGeometry relative="1" as="geometry" />
        </mxCell>
        <mxCell id="6OOZVl3HkzZtPA9987tU-26" value="提供所处单调区间内的最大边界的电压值" style="rounded=0;whiteSpace=wrap;html=1;fontSize=15;" parent="1" vertex="1">
          <mxGeometry x="391.25" y="-160" width="200" height="90" as="geometry" />
        </mxCell>
        <mxCell id="6OOZVl3HkzZtPA9987tU-27" value="否" style="text;html=1;align=center;verticalAlign=middle;whiteSpace=wrap;rounded=0;fontSize=16;" parent="1" vertex="1">
          <mxGeometry x="420" y="-220" width="60" height="30" as="geometry" />
        </mxCell>
        <mxCell id="6OOZVl3HkzZtPA9987tU-28" value="计算边界电压值" style="rounded=0;whiteSpace=wrap;html=1;fontSize=15;" parent="1" vertex="1">
          <mxGeometry x="930" y="-330" width="200" height="90" as="geometry" />
        </mxCell>
        <mxCell id="6OOZVl3HkzZtPA9987tU-31" value="" style="edgeStyle=elbowEdgeStyle;elbow=vertical;endArrow=classic;html=1;curved=0;rounded=0;endSize=8;startSize=8;fontSize=12;exitX=0.545;exitY=0.986;exitDx=0;exitDy=0;exitPerimeter=0;entryX=1;entryY=0.5;entryDx=0;entryDy=0;" parent="1" source="6OOZVl3HkzZtPA9987tU-28" target="6OOZVl3HkzZtPA9987tU-5" edge="1">
          <mxGeometry width="50" height="50" relative="1" as="geometry">
            <mxPoint x="546" y="292" as="sourcePoint" />
            <mxPoint x="171" y="365" as="targetPoint" />
            <Array as="points">
              <mxPoint x="520" y="355" />
            </Array>
          </mxGeometry>
        </mxCell>
        <mxCell id="6OOZVl3HkzZtPA9987tU-32" value="输出 json&amp;nbsp;&lt;br&gt;输出 拟合的电压" style="rounded=0;whiteSpace=wrap;html=1;fontSize=15;" parent="1" vertex="1">
          <mxGeometry x="-50" y="1040" width="200" height="90" as="geometry" />
        </mxCell>
        <mxCell id="6OOZVl3HkzZtPA9987tU-35" value="否" style="text;html=1;align=center;verticalAlign=middle;whiteSpace=wrap;rounded=0;fontSize=16;" parent="1" vertex="1">
          <mxGeometry x="-10" y="430" width="60" height="30" as="geometry" />
        </mxCell>
        <mxCell id="6OOZVl3HkzZtPA9987tU-42" value="" style="edgeStyle=none;curved=1;rounded=0;orthogonalLoop=1;jettySize=auto;html=1;fontSize=12;startSize=8;endSize=8;" parent="1" source="6OOZVl3HkzZtPA9987tU-36" target="6OOZVl3HkzZtPA9987tU-41" edge="1">
          <mxGeometry relative="1" as="geometry" />
        </mxCell>
        <mxCell id="6OOZVl3HkzZtPA9987tU-46" value="" style="edgeStyle=none;curved=1;rounded=0;orthogonalLoop=1;jettySize=auto;html=1;fontSize=12;startSize=8;endSize=8;" parent="1" source="6OOZVl3HkzZtPA9987tU-36" target="6OOZVl3HkzZtPA9987tU-43" edge="1">
          <mxGeometry relative="1" as="geometry" />
        </mxCell>
        <mxCell id="6OOZVl3HkzZtPA9987tU-36" value="判断两端电压余量&lt;br style=&quot;border-color: var(--border-color);&quot;&gt;是否足够" style="rhombus;whiteSpace=wrap;html=1;fontSize=15;" parent="1" vertex="1">
          <mxGeometry x="-740" y="300" width="222.5" height="110" as="geometry" />
        </mxCell>
        <mxCell id="6OOZVl3HkzZtPA9987tU-38" value="是" style="text;html=1;align=center;verticalAlign=middle;whiteSpace=wrap;rounded=0;fontSize=16;" parent="1" vertex="1">
          <mxGeometry x="-500" y="320" width="60" height="30" as="geometry" />
        </mxCell>
        <mxCell id="6OOZVl3HkzZtPA9987tU-52" style="edgeStyle=none;curved=1;rounded=0;orthogonalLoop=1;jettySize=auto;html=1;entryX=0;entryY=0.5;entryDx=0;entryDy=0;fontSize=12;startSize=8;endSize=8;" parent="1" source="6OOZVl3HkzZtPA9987tU-39" target="6OOZVl3HkzZtPA9987tU-14" edge="1">
          <mxGeometry relative="1" as="geometry">
            <Array as="points">
              <mxPoint x="-560" y="1070" />
            </Array>
          </mxGeometry>
        </mxCell>
        <mxCell id="6OOZVl3HkzZtPA9987tU-39" value="输出这部分的电压" style="rounded=0;whiteSpace=wrap;html=1;fontSize=15;" parent="1" vertex="1">
          <mxGeometry x="-728.75" y="730" width="200" height="90" as="geometry" />
        </mxCell>
        <mxCell id="6OOZVl3HkzZtPA9987tU-40" value="是" style="text;html=1;align=center;verticalAlign=middle;whiteSpace=wrap;rounded=0;fontSize=16;" parent="1" vertex="1">
          <mxGeometry x="740" y="-330" width="60" height="30" as="geometry" />
        </mxCell>
        <mxCell id="6OOZVl3HkzZtPA9987tU-41" value="计算边界电压值" style="rounded=0;whiteSpace=wrap;html=1;fontSize=15;" parent="1" vertex="1">
          <mxGeometry x="-1040" y="310" width="200" height="90" as="geometry" />
        </mxCell>
        <mxCell id="6OOZVl3HkzZtPA9987tU-50" value="" style="edgeStyle=none;curved=1;rounded=0;orthogonalLoop=1;jettySize=auto;html=1;fontSize=12;startSize=8;endSize=8;" parent="1" source="6OOZVl3HkzZtPA9987tU-43" target="6OOZVl3HkzZtPA9987tU-39" edge="1">
          <mxGeometry relative="1" as="geometry" />
        </mxCell>
        <mxCell id="6OOZVl3HkzZtPA9987tU-43" value="提供最大边界的电压值" style="rounded=0;whiteSpace=wrap;html=1;fontSize=15;" parent="1" vertex="1">
          <mxGeometry x="-728.75" y="490" width="200" height="90" as="geometry" />
        </mxCell>
        <mxCell id="6OOZVl3HkzZtPA9987tU-44" value="" style="edgeStyle=elbowEdgeStyle;elbow=horizontal;endArrow=classic;html=1;curved=0;rounded=0;endSize=8;startSize=8;fontSize=12;exitX=0.5;exitY=1;exitDx=0;exitDy=0;entryX=0;entryY=0.5;entryDx=0;entryDy=0;" parent="1" source="6OOZVl3HkzZtPA9987tU-16" target="6OOZVl3HkzZtPA9987tU-14" edge="1">
          <mxGeometry width="50" height="50" relative="1" as="geometry">
            <mxPoint x="-240" y="510" as="sourcePoint" />
            <mxPoint x="-190" y="460" as="targetPoint" />
            <Array as="points">
              <mxPoint x="-319" y="470" />
            </Array>
          </mxGeometry>
        </mxCell>
        <mxCell id="6OOZVl3HkzZtPA9987tU-45" value="否" style="text;html=1;align=center;verticalAlign=middle;whiteSpace=wrap;rounded=0;fontSize=16;" parent="1" vertex="1">
          <mxGeometry x="-320" y="510" width="60" height="30" as="geometry" />
        </mxCell>
        <mxCell id="6OOZVl3HkzZtPA9987tU-47" value="" style="edgeStyle=elbowEdgeStyle;elbow=horizontal;endArrow=classic;html=1;curved=0;rounded=0;endSize=8;startSize=8;fontSize=12;exitX=0.5;exitY=1;exitDx=0;exitDy=0;entryX=0;entryY=0.5;entryDx=0;entryDy=0;" parent="1" source="6OOZVl3HkzZtPA9987tU-41" target="6OOZVl3HkzZtPA9987tU-39" edge="1">
          <mxGeometry width="50" height="50" relative="1" as="geometry">
            <mxPoint x="-940" y="540.0000000000002" as="sourcePoint" />
            <mxPoint x="-728.75" y="674.9999999999998" as="targetPoint" />
            <Array as="points">
              <mxPoint x="-940" y="640" />
            </Array>
          </mxGeometry>
        </mxCell>
        <mxCell id="6OOZVl3HkzZtPA9987tU-48" value="是" style="text;html=1;align=center;verticalAlign=middle;whiteSpace=wrap;rounded=0;fontSize=16;" parent="1" vertex="1">
          <mxGeometry x="-820" y="320" width="60" height="30" as="geometry" />
        </mxCell>
        <mxCell id="6OOZVl3HkzZtPA9987tU-49" value="否" style="text;html=1;align=center;verticalAlign=middle;whiteSpace=wrap;rounded=0;fontSize=16;" parent="1" vertex="1">
          <mxGeometry x="-620" y="440" width="60" height="30" as="geometry" />
        </mxCell>
        <mxCell id="T5l22h_LEsQU9Dkja71x-3" style="edgeStyle=none;curved=1;rounded=0;orthogonalLoop=1;jettySize=auto;html=1;entryX=0;entryY=0.5;entryDx=0;entryDy=0;fontSize=12;startSize=8;endSize=8;" edge="1" parent="1" source="T5l22h_LEsQU9Dkja71x-1" target="T5l22h_LEsQU9Dkja71x-2">
          <mxGeometry relative="1" as="geometry" />
        </mxCell>
        <mxCell id="T5l22h_LEsQU9Dkja71x-5" style="edgeStyle=none;curved=1;rounded=0;orthogonalLoop=1;jettySize=auto;html=1;entryX=1;entryY=0.5;entryDx=0;entryDy=0;fontSize=12;startSize=8;endSize=8;" edge="1" parent="1" source="T5l22h_LEsQU9Dkja71x-1" target="6OOZVl3HkzZtPA9987tU-5">
          <mxGeometry relative="1" as="geometry" />
        </mxCell>
        <mxCell id="T5l22h_LEsQU9Dkja71x-1" value="单调区间内计算的&lt;br&gt;&amp;nbsp;delta cwl&amp;gt;=5" style="rhombus;whiteSpace=wrap;html=1;fontSize=15;" vertex="1" parent="1">
          <mxGeometry x="380" y="-20" width="222.5" height="110" as="geometry" />
        </mxCell>
        <mxCell id="T5l22h_LEsQU9Dkja71x-2" value="检索全局最接近的波长索引" style="rounded=0;whiteSpace=wrap;html=1;fontSize=15;" vertex="1" parent="1">
          <mxGeometry x="710" y="-160" width="200" height="90" as="geometry" />
        </mxCell>
        <mxCell id="T5l22h_LEsQU9Dkja71x-6" value="是" style="text;html=1;align=center;verticalAlign=middle;whiteSpace=wrap;rounded=0;fontSize=16;" vertex="1" parent="1">
          <mxGeometry x="640" y="-50" width="60" height="30" as="geometry" />
        </mxCell>
        <mxCell id="T5l22h_LEsQU9Dkja71x-7" value="否" style="text;html=1;align=center;verticalAlign=middle;whiteSpace=wrap;rounded=0;fontSize=16;" vertex="1" parent="1">
          <mxGeometry x="250" y="170" width="60" height="30" as="geometry" />
        </mxCell>
      </root>
    </mxGraphModel>
  </diagram>
</mxfile>
